<?xml version="1.0" encoding="utf-8"?>
<!-- Generator: Adobe Illustrator 16.0.0, SVG Export Plug-In . SVG Version: 6.00 Build 0)  -->
<!DOCTYPE svg PUBLIC "-//W3C//DTD SVG 1.1//EN" "http://www.w3.org/Graphics/SVG/1.1/DTD/svg11.dtd">
<svg version="1.1" id="Layer_1" xmlns="http://www.w3.org/2000/svg" xmlns:xlink="http://www.w3.org/1999/xlink" x="0px" y="0px"
	 width="133.323px" height="49.248px" viewBox="0 0 133.323 49.248" enable-background="new 0 0 133.323 49.248"
	 xml:space="preserve">
<g>
	<g>
		<linearGradient id="SVGID_1_" gradientUnits="userSpaceOnUse" x1="64.1963" y1="47.4175" x2="64.1963" y2="47.4175">
			<stop  offset="0" style="stop-color:#C191C2"/>
			<stop  offset="0.3401" style="stop-color:#B69DCB"/>
			<stop  offset="1" style="stop-color:#95B7E0"/>
		</linearGradient>
		<path fill="none" stroke="url(#SVGID_1_)" stroke-width="5" stroke-linecap="round" stroke-miterlimit="10" d="M64.196,47.417"/>
		<linearGradient id="SVGID_2_" gradientUnits="userSpaceOnUse" x1="55.8525" y1="47.4175" x2="55.8525" y2="47.4175">
			<stop  offset="0" style="stop-color:#C191C2"/>
			<stop  offset="0.3401" style="stop-color:#B69DCB"/>
			<stop  offset="1" style="stop-color:#95B7E0"/>
		</linearGradient>
		<path fill="none" stroke="url(#SVGID_2_)" stroke-width="5" stroke-linecap="round" stroke-miterlimit="10" d="M55.853,47.417"/>
		<linearGradient id="SVGID_3_" gradientUnits="userSpaceOnUse" x1="43.4102" y1="32.6846" x2="56.0405" y2="32.6846">
			<stop  offset="0" style="stop-color:#C191C2"/>
			<stop  offset="0.3401" style="stop-color:#B69DCB"/>
			<stop  offset="1" style="stop-color:#95B7E0"/>
		</linearGradient>
		<path fill="url(#SVGID_3_)" d="M45.033,49.04c-0.164,0-0.33-0.025-0.493-0.078c-0.853-0.271-1.325-1.183-1.053-2.036l9.387-29.466
			c0.271-0.853,1.183-1.327,2.036-1.052c0.854,0.271,1.325,1.183,1.054,2.036L46.576,47.91C46.357,48.599,45.72,49.04,45.033,49.04z
			"/>
		<linearGradient id="SVGID_4_" gradientUnits="userSpaceOnUse" x1="46.9922" y1="40.2549" x2="90.9463" y2="40.2549">
			<stop  offset="0" style="stop-color:#C191C2"/>
			<stop  offset="0.3401" style="stop-color:#B69DCB"/>
			<stop  offset="1" style="stop-color:#95B7E0"/>
		</linearGradient>
		<path fill="url(#SVGID_4_)" d="M81.363,49.039c-2.026,0-3.913-0.607-5.488-1.648c-2.125,1.052-4.498,1.636-6.96,1.648H68.8
			c-1.979-0.026-3.822-0.635-5.366-1.658c-2.154,1.07-4.562,1.658-7.061,1.658c-1.731,0-3.139-1.408-3.139-3.139
			c0-0.305,0.044-0.604,0.129-0.894l2.147-6.745c0.068-0.227,0.107-0.491,0.107-0.76c0-1.537-1.251-2.788-2.788-2.788
			c-1.232,0-2.304,0.792-2.666,1.969c-0.263,0.855-1.17,1.336-2.026,1.073c-0.856-0.264-1.337-1.171-1.073-2.026
			c0.784-2.548,3.102-4.258,5.766-4.258c3.326,0,6.03,2.705,6.03,6.03c0,0.584-0.083,1.162-0.25,1.718l-2.095,6.576
			c1.521-0.018,2.997-0.308,4.371-0.834c-1.225-1.657-1.95-3.7-1.95-5.899c0-1.652,0.413-3.288,1.193-4.733l0.068-0.114
			c1.118-1.718,3.009-2.743,5.056-2.743c3.324,0,6.028,2.705,6.028,6.03c0,0.646-0.101,1.278-0.3,1.885l0.004,0.002l-0.072,0.193
			l-0.008-0.002l-0.01,0.023c-1.011,2.272-2.519,4.227-4.359,5.757c0.713,0.272,1.482,0.425,2.284,0.436h0.011
			c1.564,0,3.083-0.289,4.495-0.826c-1.219-1.655-1.94-3.699-1.94-5.907c0-1.655,0.411-3.291,1.189-4.733l0.068-0.114
			c1.119-1.718,3.009-2.743,5.057-2.743c3.324,0,6.029,2.705,6.029,6.03c0,0.711-0.123,1.408-0.368,2.075l-0.065-0.024l0.066,0.028
			l-0.032,0.074v-0.001c-1.013,2.253-2.512,4.191-4.341,5.71c0.738,0.279,1.538,0.432,2.373,0.432c2.944,0,5.522-1.881,6.416-4.683
			c0.271-0.854,1.184-1.323,2.038-1.052c0.854,0.271,1.324,1.185,1.052,2.037C89.545,46.25,85.725,49.039,81.363,49.039z
			 M75.396,35.932c-0.502,0.955-0.768,2.035-0.768,3.13c0,1.655,0.601,3.173,1.595,4.347c1.752-1.262,3.187-2.974,4.118-5.015
			c0.096-0.286,0.146-0.587,0.146-0.893c0-1.537-1.25-2.788-2.786-2.788C76.775,34.713,75.918,35.167,75.396,35.932z M62.95,35.932
			c-0.504,0.957-0.771,2.038-0.771,3.13c0,1.646,0.602,3.163,1.597,4.338c1.77-1.276,3.214-3.013,4.143-5.083
			c0.08-0.262,0.121-0.535,0.121-0.815c0-1.537-1.25-2.788-2.786-2.788C64.328,34.713,63.472,35.167,62.95,35.932z"/>
		<linearGradient id="SVGID_5_" gradientUnits="userSpaceOnUse" x1="106.5742" y1="47.4175" x2="106.5742" y2="47.4175">
			<stop  offset="0" style="stop-color:#C191C2"/>
			<stop  offset="0.3401" style="stop-color:#B69DCB"/>
			<stop  offset="1" style="stop-color:#95B7E0"/>
		</linearGradient>
		<path fill="none" stroke="url(#SVGID_5_)" stroke-width="5" stroke-linecap="round" stroke-miterlimit="10" d="M106.574,47.417"/>
		<linearGradient id="SVGID_6_" gradientUnits="userSpaceOnUse" x1="107.8457" y1="33.0923" x2="107.8457" y2="33.0923">
			<stop  offset="0" style="stop-color:#C191C2"/>
			<stop  offset="0.3401" style="stop-color:#B69DCB"/>
			<stop  offset="1" style="stop-color:#95B7E0"/>
		</linearGradient>
		<path fill="none" stroke="url(#SVGID_6_)" stroke-width="5" stroke-linecap="round" stroke-miterlimit="10" d="M107.846,33.092"/>
		<linearGradient id="SVGID_7_" gradientUnits="userSpaceOnUse" x1="98.2314" y1="47.4175" x2="98.2314" y2="47.4175">
			<stop  offset="0" style="stop-color:#C191C2"/>
			<stop  offset="0.3401" style="stop-color:#B69DCB"/>
			<stop  offset="1" style="stop-color:#95B7E0"/>
		</linearGradient>
		<path fill="none" stroke="url(#SVGID_7_)" stroke-width="5" stroke-linecap="round" stroke-miterlimit="10" d="M98.231,47.417"/>
		<linearGradient id="SVGID_8_" gradientUnits="userSpaceOnUse" x1="85.8516" y1="32.7051" x2="98.48" y2="32.7051">
			<stop  offset="0" style="stop-color:#C191C2"/>
			<stop  offset="0.3401" style="stop-color:#B69DCB"/>
			<stop  offset="1" style="stop-color:#95B7E0"/>
		</linearGradient>
		<path fill="url(#SVGID_8_)" d="M87.474,49.06c-0.162,0-0.328-0.024-0.491-0.077c-0.854-0.271-1.325-1.184-1.055-2.037
			l9.387-29.466c0.271-0.853,1.183-1.326,2.037-1.053c0.853,0.272,1.323,1.184,1.052,2.037L89.019,47.93
			C88.799,48.62,88.161,49.06,87.474,49.06z"/>
		<linearGradient id="SVGID_9_" gradientUnits="userSpaceOnUse" x1="89.3726" y1="40.2549" x2="133.3232" y2="40.2549">
			<stop  offset="0" style="stop-color:#C191C2"/>
			<stop  offset="0.3401" style="stop-color:#B69DCB"/>
			<stop  offset="1" style="stop-color:#95B7E0"/>
		</linearGradient>
		<path fill="url(#SVGID_9_)" d="M123.741,49.039c-2.025,0-3.912-0.607-5.487-1.648c-2.126,1.052-4.498,1.636-6.961,1.648h-0.116
			c-1.978-0.026-3.819-0.634-5.363-1.656c-2.153,1.068-4.563,1.656-7.063,1.656c-1.729,0-3.139-1.408-3.139-3.139
			c0-0.305,0.044-0.604,0.129-0.894l2.163-6.795c0.061-0.228,0.091-0.466,0.091-0.71c0-1.537-1.25-2.788-2.786-2.788
			c-1.233,0-2.304,0.791-2.665,1.968c-0.263,0.856-1.171,1.336-2.026,1.074c-0.855-0.264-1.336-1.17-1.073-2.026
			c0.782-2.547,3.099-4.258,5.765-4.258c3.325,0,6.029,2.705,6.029,6.03c0,0.587-0.084,1.165-0.25,1.718l-0.37,1.156l-1.724,5.42
			c1.521-0.018,2.997-0.308,4.372-0.834c-1.226-1.657-1.95-3.7-1.95-5.899c0-1.652,0.411-3.288,1.189-4.732l0.07-0.116
			c1.119-1.717,3.009-2.742,5.055-2.742c3.325,0,6.03,2.705,6.03,6.03c0,0.648-0.103,1.284-0.303,1.893l0.004,0.002l-0.074,0.194
			l-0.009-0.003l-0.019,0.044c-1.005,2.259-2.505,4.204-4.341,5.73c0.71,0.271,1.479,0.423,2.278,0.434h0.013
			c1.564,0,3.085-0.289,4.496-0.826c-1.22-1.655-1.941-3.699-1.941-5.907c0-1.652,0.411-3.288,1.187-4.731l0.069-0.116
			c1.12-1.718,3.009-2.743,5.057-2.743c3.324,0,6.029,2.705,6.029,6.03c0,0.707-0.123,1.403-0.365,2.071l-0.122-0.045l0.12,0.053
			l-0.032,0.074l-0.001-0.001c-1.01,2.254-2.509,4.191-4.337,5.71c0.737,0.279,1.537,0.432,2.371,0.432
			c2.944,0,5.521-1.881,6.415-4.683c0.272-0.854,1.183-1.323,2.038-1.052c0.854,0.271,1.324,1.185,1.052,2.037
			C131.922,46.25,128.103,49.039,123.741,49.039z M117.774,35.931c-0.501,0.956-0.766,2.038-0.766,3.131
			c0,1.655,0.601,3.173,1.595,4.347c1.751-1.261,3.184-2.972,4.113-5.011c0.099-0.292,0.148-0.593,0.148-0.896
			c0-1.537-1.251-2.788-2.787-2.788C119.153,34.713,118.297,35.167,117.774,35.931z M105.327,35.932
			c-0.503,0.957-0.768,2.037-0.768,3.13c0,1.646,0.602,3.163,1.597,4.338c1.771-1.278,3.217-3.018,4.144-5.091
			c0.079-0.26,0.118-0.53,0.118-0.808c0-1.537-1.25-2.788-2.787-2.788C106.706,34.713,105.85,35.167,105.327,35.932z"/>
	</g>
	<g>
		<linearGradient id="SVGID_10_" gradientUnits="userSpaceOnUse" x1="1.1123" y1="17.4014" x2="28.5876" y2="3.5607">
			<stop  offset="0" style="stop-color:#FDD1B6"/>
			<stop  offset="0.4086" style="stop-color:#F7A8B5"/>
			<stop  offset="0.5337" style="stop-color:#F597A6"/>
			<stop  offset="0.792" style="stop-color:#F26D83"/>
			<stop  offset="0.8029" style="stop-color:#F16B82"/>
			<stop  offset="1" style="stop-color:#F16578"/>
		</linearGradient>
		<path fill="url(#SVGID_10_)" d="M17.796,1.361c-5.926,0-11.121,3.123-14.035,7.813c-0.61,0.88-1.096,1.854-1.427,2.9
			c-0.337,1.051-0.519,2.173-0.519,3.337c0,2.21,0.656,4.267,1.78,5.987c0.083,0.125,0.159,0.256,0.224,0.393
			c0.001,0.001,0.002,0.002,0.002,0.003c0.196,0.411,0.307,0.871,0.307,1.358c0,0.843-0.331,1.604-0.87,2.172
			c0.673-0.645,1.43-1.203,2.251-1.656L35.814,9.537C31.424,4.526,24.98,1.361,17.796,1.361z"/>
		<linearGradient id="SVGID_11_" gradientUnits="userSpaceOnUse" x1="8.3242" y1="46.5063" x2="18.6108" y2="33.6773">
			<stop  offset="0.1989" style="stop-color:#F7A8B5"/>
			<stop  offset="0.4111" style="stop-color:#F597A6"/>
			<stop  offset="0.849" style="stop-color:#F26D83"/>
			<stop  offset="0.8675" style="stop-color:#F16B82"/>
			<stop  offset="1" style="stop-color:#F16578"/>
		</linearGradient>
		<path fill="url(#SVGID_11_)" d="M5.508,23.667L5.508,23.667c-0.822,0.453-1.577,1.012-2.25,1.656
			c-0.015,0.017-0.027,0.035-0.045,0.049h0.002C1.232,27.31,0,30.013,0,33.004c0,0.728,0.074,1.437,0.213,2.123
			c0.008,0.037,0.014,0.074,0.022,0.111c0.01,0.046,0.021,0.092,0.032,0.137c0.035,0.151,0.073,0.302,0.112,0.452
			c2.029,7.723,9.058,13.42,17.416,13.42c5.347,0,10.282-1.753,14.267-4.713L5.508,23.667L5.508,23.667z"/>
		<linearGradient id="SVGID_12_" gradientUnits="userSpaceOnUse" x1="6.4731" y1="23.8945" x2="41.5687" y2="27.9074">
			<stop  offset="0" style="stop-color:#C191C2"/>
			<stop  offset="0.3401" style="stop-color:#B69DCB"/>
			<stop  offset="1" style="stop-color:#95B7E0"/>
		</linearGradient>
		<path fill="url(#SVGID_12_)" d="M35.814,9.537L5.509,23.667l26.554,20.867c5.872-4.363,9.678-11.352,9.678-19.23
			C41.74,19.265,39.503,13.749,35.814,9.537z"/>
		<linearGradient id="SVGID_13_" gradientUnits="userSpaceOnUse" x1="40.1646" y1="7.2588" x2="55.8072" y2="9.0474">
			<stop  offset="0" style="stop-color:#C191C2"/>
			<stop  offset="0.3401" style="stop-color:#B69DCB"/>
			<stop  offset="1" style="stop-color:#95B7E0"/>
		</linearGradient>
		<path fill="url(#SVGID_13_)" d="M55.566,8.291c-0.065-0.369-0.188-0.731-0.364-1.07c-0.177-0.345-0.409-0.667-0.698-0.956
			c-0.546-0.546-1.218-0.894-1.922-1.041C52.529,5.212,52.479,5.2,52.43,5.182l0,0c-0.151-0.054-0.292-0.141-0.412-0.261
			c-0.21-0.208-0.316-0.479-0.323-0.752V4.168c0-0.008-0.002-0.016,0-0.022h-0.002c0.012-0.971-0.354-1.944-1.093-2.685
			c-0.18-0.18-0.374-0.337-0.578-0.474c-0.011-0.007-0.022-0.014-0.034-0.021c-0.013-0.01-0.027-0.018-0.04-0.027
			c-0.046-0.028-0.094-0.057-0.14-0.083c-2.414-1.409-5.564-1.08-7.633,0.988c-1.324,1.323-2.112,2.979-2.364,4.697
			c-0.373,2.533,0.415,5.205,2.364,7.154c1.495,1.494,3.413,2.306,5.369,2.436c2.327,0.154,4.704-0.657,6.482-2.436
			C55.493,12.23,56.007,10.171,55.566,8.291z"/>
	</g>
</g>
</svg>
